PathFileType	4	(X/Y/Z)	C:/Users/opensim2020/Desktop/walking_exp_matlab/subject06_walking23_straight_02.trc	
DataRate	CameraRate	NumFrames	NumMarkers	Units	OrigDataRate	OrigDataStartFrame	OrigNumFrames	
100.00	100.00	4	45	mm	100.00	1305	114	
Frame#	Time	LFHD			RFHD			LBHD			RBHD			C7			T10			CLAV			STRN			RBAK			LSHO			LUPA			LELB			LFRM			LWRA			LWRB			LFIN			RSHO			RUPA			RELB			RFRM			RWRA			RWRB			RFIN			LASI			RASI			LPSI			RPSI			LTHI			LKNE			LTIB			LANK			LHEE			LTOE			RTHI			RKNE			RTIB			RANK			RHEE			RTOE			*39			*40			*41			*42			*43			*44			
		X1	Y1	Z1	X2	Y2	Z2	X3	Y3	Z3	X4	Y4	Z4	X5	Y5	Z5	X6	Y6	Z6	X7	Y7	Z7	X8	Y8	Z8	X9	Y9	Z9	X10	Y10	Z10	X11	Y11	Z11	X12	Y12	Z12	X13	Y13	Z13	X14	Y14	Z14	X15	Y15	Z15	X16	Y16	Z16	X17	Y17	Z17	X18	Y18	Z18	X19	Y19	Z19	X20	Y20	Z20	X21	Y21	Z21	X22	Y22	Z22	X23	Y23	Z23	X24	Y24	Z24	X25	Y25	Z25	X26	Y26	Z26	X27	Y27	Z27	X28	Y28	Z28	X29	Y29	Z29	X30	Y30	Z30	X31	Y31	Z31	X32	Y32	Z32	X33	Y33	Z33	X34	Y34	Z34	X35	Y35	Z35	X36	Y36	Z36	X37	Y37	Z37	X38	Y38	Z38	X39	Y39	Z39	X40	Y40	Z40	X41	Y41	Z41	X42	Y42	Z42	X43	Y43	Z43	X44	Y44	Z44	X45	Y45	Z45	

29	0.280	-885.86163	411.02719	1617.37048	-1016.85181	391.08350	1617.70715	-910.90533	543.76416	1567.64441	-1038.58911	522.21393	1572.57898	-967.85614	538.08850	1410.05554	-980.28082	568.78644	1080.63770	-967.41101	424.40924	1336.25256	-969.42584	379.25888	1166.31360	-1054.23767	608.46625	1242.04395	-805.65576	486.40530	1360.87622	-736.73798	540.99298	1168.91943	-727.09015	583.26697	1064.49622	-696.59680	614.23151	919.91833	-724.72955	593.99902	787.41522	-694.98828	656.23962	809.00201	-689.88928	652.77551	717.14838	-1127.60168	471.36469	1370.67566	-1233.44226	488.35019	1180.58838	-1259.01685	458.09894	1066.90955	-1274.18958	385.48618	975.62476	-1229.47607	263.29028	897.22565	-1275.57056	302.06879	867.94196	-1271.53052	227.84520	830.14166	-886.32343	378.76843	933.03967	-1102.05908	402.37833	933.54260	-891.61499	537.35681	948.86432	-1058.53918	549.49152	953.40967	-815.45477	358.22629	624.71509	-845.14301	293.05869	480.15182	-853.83429	251.59886	226.98080	-894.99457	209.11884	62.80235	-943.04425	243.56027	43.50966	-895.81372	64.04951	62.41224	-1147.01367	514.58807	598.71118	-1128.27148	542.50952	473.29068	-1117.64319	734.06744	277.97064	-1071.57666	860.20087	141.62698	-1027.64490	905.68555	147.49847	-1065.25256	758.21216	31.06191	-956.14331	500.13184	1663.67725															 
30	0.290	-884.51483	395.88431	1619.17139	-1015.52094	376.38474	1619.49646	-909.00403	528.42383	1568.97595	-1036.75964	507.52145	1573.92456	-965.93860	522.65363	1411.52563	-979.65326	552.64996	1081.51733	-965.82269	408.91815	1337.89026	-968.00983	363.33038	1168.01172	-1051.94690	593.02618	1242.82227	-803.87170	470.78964	1361.63525	-735.28040	524.60559	1169.31470	-725.78540	566.60657	1064.67358	-695.81598	597.13397	919.88306	-724.91687	577.43005	787.45190	-694.44910	638.89764	808.98798	-689.60767	635.39258	717.18915	-1126.32446	456.38208	1371.88867	-1231.69031	474.15280	1181.35278	-1257.43262	444.78082	1067.31702	-1272.78027	373.19901	975.27148	-1228.38660	251.29776	895.92169	-1274.18665	290.55652	866.84631	-1270.41455	216.67035	828.48303	-885.32825	361.72263	934.90076	-1100.68628	385.10065	934.83612	-890.88995	521.20410	951.37518	-1058.14404	533.08240	953.72784	-815.22241	341.42526	628.58093	-844.25061	275.74387	483.83191	-852.36981	240.42525	229.64122	-893.95001	205.30246	63.04549	-941.68964	241.85472	45.45435	-896.34894	61.02728	57.54065	-1146.75281	494.69131	597.35504	-1129.05652	520.19617	471.33664	-1116.67090	716.54199	282.29840	-1070.68579	848.12976	152.22823	-1025.80859	891.29926	161.69325	-1064.33521	758.18433	31.37293	-954.39429	485.46277	1665.13135															 
31	0.300	-883.16339	380.64178	1621.23926	-1014.19604	361.68369	1621.54321	-907.03046	513.12500	1570.81470	-1034.80481	492.61319	1575.69373	-964.20007	506.96918	1413.63916	-979.23792	537.08063	1083.20581	-964.43188	393.64145	1339.79272	-966.57806	347.70453	1170.31396	-1049.90320	577.41437	1244.24133	-802.19843	455.18539	1363.08765	-733.86023	507.74130	1170.17371	-724.41943	549.25391	1065.28235	-694.60156	579.05109	920.30133	-724.77911	559.04346	787.99146	-693.56421	620.26831	809.20709	-689.36096	616.54315	717.41205	-1125.21155	441.15704	1373.69519	-1229.70447	460.16895	1182.79688	-1255.52942	431.59543	1068.30554	-1271.03369	361.26151	975.17535	-1227.27710	240.02312	894.47412	-1272.69238	280.06781	865.74011	-1269.20898	206.64069	826.42609	-884.09052	345.13251	937.68628	-1098.97339	368.98950	936.15564	-891.28998	505.81314	954.19128	-1058.30017	516.89368	954.25885	-814.49011	324.49026	633.19702	-844.06525	258.23370	488.23386	-850.23047	232.44849	231.86343	-892.77069	203.66608	63.47829	-939.84186	240.54327	46.52526	-897.99243	58.35463	52.08102	-1146.49609	473.87329	596.19452	-1130.13074	496.17010	469.54724	-1115.98755	697.19073	287.42642	-1069.46057	833.80963	163.87595	-1023.72449	874.27838	176.78333	-1063.31750	757.72882	32.79045	-952.61249	470.56256	1667.02722															 
32	0.310	-881.88159	365.29309	1623.09216	-1012.89813	346.97803	1623.35095	-905.13196	497.87155	1572.79712	-1032.99194	477.94388	1577.60339	-962.70313	491.37067	1415.80798	-978.91736	522.00800	1085.31824	-963.13385	378.46112	1341.71643	-965.23175	332.23914	1172.67517	-1048.44824	561.70441	1246.09167	-800.84656	439.29346	1364.86780	-732.45032	490.47620	1171.45068	-723.08655	531.27875	1066.30518	-693.63824	559.78918	921.00299	-724.78662	539.35736	789.00586	-692.59058	600.37585	809.68713	-689.00385	596.33167	717.88867	-1123.93933	425.73898	1375.95007	-1227.61511	446.46164	1184.85876	-1253.19604	418.49356	1069.96765	-1269.09338	349.72156	975.51697	-1226.08984	229.63100	892.94684	-1271.08313	270.38992	864.64624	-1268.23682	197.55113	824.34760	-882.74286	329.22876	941.03271	-1097.20935	353.29132	937.53571	-892.19269	490.90887	956.98889	-1058.64075	500.95120	955.10254	-812.72107	308.05505	637.69971	-843.53571	242.99115	491.62265	-848.48450	225.17030	233.81941	-891.57068	201.02528	63.46900	-937.83893	238.23610	47.16882	-899.73486	55.73440	46.72589	-1146.53625	452.47281	595.14960	-1131.43640	471.08585	468.01288	-1115.59314	676.09631	293.09079	-1068.11279	817.34534	175.67447	-1021.73621	855.42303	191.59409	-1062.71912	753.87305	36.48058	-950.91693	455.49493	1668.96277															 
